<svg width="66" height="20" viewBox="0 0 66 20" fill="none" xmlns="http://www.w3.org/2000/svg">
<path fill-rule="evenodd" clip-rule="evenodd" d="M10.0198 12.2829C14.8695 15.3587 20.8664 17.211 27.0606 17.211C31.239 17.211 35.8322 16.2659 40.0585 14.3123C40.6958 14.0173 41.2302 14.7701 40.6063 15.2718C36.8366 18.3039 31.3709 19.9166 26.6647 19.9166C20.0685 19.9166 14.129 17.2594 9.6337 12.8358C9.28085 12.4885 9.59566 12.0138 10.0198 12.2829ZM44.0546 12.6554C44.4789 13.1435 43.9438 16.5226 41.8724 18.1351C41.5537 18.3833 41.2509 18.2511 41.392 17.9232L41.6362 17.3496C42.1388 16.1475 42.8266 14.3258 42.4073 13.8264C41.9132 13.2377 39.1427 13.5474 37.8983 13.6859C37.5213 13.728 37.4627 13.4219 37.8027 13.1995C40.0126 11.7548 43.6337 12.1721 44.0546 12.6554ZM22.1293 0.634239C22.9539 0.634239 23.8516 0.97449 24.4014 1.74034C24.9933 2.54854 24.9073 3.70253 24.8972 4.74605L24.8948 11.2888C24.8948 11.4908 24.7252 11.6528 24.5163 11.6528H22.5555C22.3584 11.64 22.203 11.4834 22.203 11.2897L22.2026 5.93081C22.2026 5.50544 22.2393 4.44179 22.1476 4.03765C22.0011 3.35692 21.5613 3.16546 20.9933 3.16546C20.517 3.16546 20.022 3.48449 19.8205 3.9952C19.6694 4.37807 19.642 4.95232 19.6377 5.45784L19.6375 11.2888C19.6375 11.4908 19.4678 11.6528 19.2587 11.6528H17.2982C17.1011 11.64 16.9457 11.4834 16.9457 11.2897L16.9437 5.93081C16.9437 4.80349 17.1269 3.14424 15.7344 3.14424C14.4378 3.14424 14.3791 4.5093 14.3781 5.63851L14.3777 11.2888C14.3779 11.4908 14.2083 11.6528 13.999 11.6528H12.0362C11.8493 11.6405 11.6999 11.4995 11.685 11.3199L11.6864 1.2113C11.6864 1.00912 11.8558 0.847371 12.0651 0.847371L13.8932 0.846924C14.0845 0.856754 14.2381 1.00197 14.2501 1.18628V2.50618H14.2869C14.7634 1.22985 15.6611 0.634239 16.8704 0.634239C18.0982 0.634239 18.8677 1.22985 19.4175 2.50618C19.8938 1.22985 20.9748 0.634239 22.1293 0.634239ZM51.3155 0.083313C54.1995 0.083313 55.7591 2.66885 55.7591 5.9556C55.7591 9.13258 54.0364 11.6528 51.3155 11.6528C48.486 11.6528 46.9443 9.06699 46.9443 5.84606C46.9443 2.60303 48.5041 0.083313 51.3155 0.083313ZM62.251 0.634239C63.1523 0.634239 64.0353 0.953267 64.5988 1.82545C65.0956 2.58884 65.1232 3.84563 65.1247 4.80707L65.1248 11.3342C65.102 11.5136 64.9379 11.6528 64.7391 11.6528H62.7221C62.5358 11.6409 62.3857 11.5071 62.3637 11.3342L62.3655 5.56771C62.3751 4.48808 62.3825 3.12301 61.1053 3.12301C60.6169 3.12301 60.1661 3.44204 59.9411 3.9313C59.6851 4.49206 59.6305 5.05282 59.6227 5.66158L59.6216 11.2888C59.6179 11.4908 59.444 11.6528 59.2297 11.6528H57.2252C57.0237 11.64 56.8641 11.4834 56.8641 11.2897L56.8609 1.17735C56.8778 0.992586 57.0447 0.847371 57.2473 0.847371L59.1138 0.846924C59.2893 0.855637 59.4342 0.97315 59.4712 1.12998V2.67619H59.5091C60.0726 1.29352 60.8611 0.634239 62.251 0.634239ZM44.6876 0.634239C44.9074 0.634239 45.084 0.791388 45.0845 1.01442L45.084 2.30537C45.0824 2.52189 44.8965 2.80452 44.5661 3.25292L41.0031 8.24234C42.3258 8.21208 43.7248 8.40601 44.9267 9.0686C45.1975 9.21783 45.2701 9.43947 45.2915 9.65622V11.2622C45.2915 11.4836 45.0446 11.7397 44.7852 11.6065C42.6678 10.5188 39.8583 10.3998 37.5173 11.6195C37.278 11.7446 37.0276 11.4922 37.0276 11.2708V9.74399C37.0276 9.49977 37.0324 9.08187 37.2835 8.70937L41.4116 2.90114L37.8174 2.90044C37.5978 2.90044 37.4214 2.74679 37.42 2.52142V1.01629C37.4209 0.787197 37.5971 0.634472 37.809 0.634937L44.6876 0.634239ZM31.6636 0.120063C32.6355 0.120063 33.9065 0.379808 34.6728 1.11594C35.6449 2.02516 35.5513 3.23723 35.5513 4.55774V7.67355C35.5513 8.61067 35.9404 9.02196 36.3056 9.52693C36.4332 9.70886 36.462 9.92528 36.299 10.0582L35.8634 10.4289C35.4851 10.7541 35.046 11.1378 34.7666 11.3864L34.7621 11.3821C34.6297 11.5008 34.4391 11.5087 34.29 11.4286C33.6264 10.8765 33.5074 10.6213 33.1448 10.0959C32.0478 11.2143 31.2708 11.5495 29.8504 11.5495C28.1683 11.5495 26.8596 10.5106 26.8596 8.4326C26.8596 6.80902 27.7381 5.70516 28.9905 5.16389C30.0746 4.6875 31.5888 4.60107 32.7477 4.47108L32.7491 3.84169C32.7465 3.46324 32.715 3.06953 32.5047 2.76107C32.2615 2.39312 31.7944 2.24158 31.383 2.24158C30.6557 2.24158 30.0054 2.59772 29.8029 3.33466L29.777 3.44254C29.7426 3.62266 29.6111 3.80096 29.43 3.81004L27.4933 3.60042C27.3299 3.56345 27.1481 3.4321 27.1953 3.18234C27.6404 0.830563 29.7621 0.120063 31.6636 0.120063ZM5.47006 0.120063C6.44214 0.120063 7.71318 0.379808 8.4797 1.11594C9.41418 1.99019 9.36379 3.14445 9.35853 4.40587L9.35818 7.67355C9.35818 8.61067 9.74688 9.02196 10.1122 9.52693C10.2396 9.70886 10.2684 9.92528 10.1057 10.0582L9.50493 10.5713C9.16959 10.861 8.81273 11.1733 8.57353 11.3864L8.56877 11.3821C8.43641 11.5008 8.24557 11.5087 8.09666 11.4286C7.43282 10.8765 7.31405 10.6213 6.95119 10.0959C5.85467 11.2143 5.07773 11.5495 3.65711 11.5495C1.97471 11.5495 0.666504 10.5106 0.666504 8.4326C0.666504 6.80902 1.54499 5.70516 2.79721 5.16389C3.88149 4.6875 5.39549 4.60107 6.55433 4.47108L6.5558 3.84169C6.55317 3.46324 6.52164 3.06953 6.31137 2.76107C6.0684 2.39312 5.60083 2.24158 5.18992 2.24158C4.46257 2.24158 3.81183 2.59772 3.60969 3.33466L3.5839 3.44254C3.54922 3.62266 3.418 3.80096 3.23668 3.81004L1.30021 3.60042C1.13657 3.56345 0.954572 3.4321 1.00194 3.18234C1.44685 0.830563 3.56872 0.120063 5.47006 0.120063ZM32.7476 6.81119L32.7477 6.07311L32.5249 6.0757C31.1496 6.10856 29.7757 6.47033 29.7757 8.08619C29.7757 8.95186 30.2242 9.53646 30.9905 9.53646C31.5514 9.53646 32.0559 9.19028 32.3737 8.62746C32.7139 8.02703 32.7453 7.45931 32.7476 6.81119ZM6.55432 6.81119L6.55433 6.07311L6.33155 6.0757C4.95644 6.10856 3.58231 6.47033 3.58231 8.08619C3.58231 8.95186 4.03107 9.53646 4.79737 9.53646C5.35809 9.53646 5.86283 9.19028 6.18037 8.62746C6.52077 8.02703 6.55203 7.45931 6.55432 6.81119ZM51.3336 2.20882C49.9364 2.20882 49.8153 4.1458 49.8101 5.4205L49.8127 6.09287C49.8326 7.46449 49.995 9.50539 51.3155 9.50539C52.8211 9.50539 52.8934 7.31407 52.8934 5.97746C52.8934 5.10112 52.8573 4.04941 52.6034 3.21657C52.3854 2.49349 51.9501 2.20882 51.3336 2.20882Z" fill="#3B3A40"/>
</svg>
