<svg width="93" height="12" viewBox="0 0 93 12" fill="none" xmlns="http://www.w3.org/2000/svg">
<path fill-rule="evenodd" clip-rule="evenodd" d="M5.48179 0.199095C5.63339 0.123817 5.81531 0.18404 5.89111 0.334597L11.1365 10.7682C11.1517 10.8134 11.1668 10.8736 11.1668 10.9188C11.1668 11.0814 11.044 11.2196 10.8869 11.2456L10.8333 11.25H7.02812C6.92417 11.25 6.83135 11.1947 6.76876 11.1125L6.74008 11.0694L4.90571 7.42586C3.81502 5.21559 3.94235 2.62109 5.21803 0.527827L5.33019 0.349653C5.36051 0.28943 5.40599 0.244263 5.48179 0.199095ZM54.2131 1.9215L54.3782 1.91967C55.3324 1.89016 56.2738 2.07984 57.1547 2.47597L57.3569 2.57105V4.79527C56.3888 4.31865 55.3612 3.98502 54.3186 3.98502C53.4548 3.98502 52.9931 4.22333 52.9931 4.77939C52.9931 5.19246 53.2969 5.5024 54.4765 5.79434L54.6165 5.82795C56.9254 6.35461 57.7759 7.12292 57.817 8.72189L57.8183 8.83735L50.8782 4.77939L50.8784 4.80535L50.8335 4.77939C50.8335 3.04237 51.9831 1.97151 54.2131 1.9215ZM50.8784 4.80535L50.8793 4.88233C50.909 6.24801 51.5477 7.33376 53.9016 7.82975L54.047 7.86241C55.3665 8.16533 55.6441 8.41922 55.6441 8.91009C55.6441 9.40259 55.3463 9.73623 54.3335 9.73623C53.1122 9.72034 51.9058 9.37082 50.8335 8.71944V11.0231L50.9222 11.0691C51.6409 11.438 52.588 11.8334 54.3037 11.8334L54.473 11.8315C56.8662 11.7782 57.8335 10.5855 57.8335 8.84654L57.8183 8.83735L57.8186 8.84654L50.8784 4.80535ZM63.2815 1.92142L63.4555 1.91967C64.4849 1.89016 65.5004 2.07984 66.4507 2.47597L66.6688 2.57105V4.79527C65.6245 4.31865 64.5159 3.98502 63.3912 3.98502C62.4594 3.98502 61.9613 4.22333 61.9613 4.77939C61.9613 5.19302 62.29 5.50325 63.5668 5.79554L63.7126 5.82795C66.2671 6.36812 67.1668 7.16248 67.1668 8.84654C67.1668 10.6259 66.0904 11.8175 63.327 11.8334C61.4731 11.8334 60.4512 11.4368 59.6754 11.0673L59.5835 11.0231V8.71944C60.7403 9.37082 62.0417 9.72034 63.3591 9.73623C64.4516 9.73623 64.7729 9.40259 64.7729 8.91009C64.7729 8.41864 64.4727 8.16473 63.0449 7.86133L62.8932 7.82975C60.2904 7.32136 59.6317 6.19336 59.6317 4.77939C59.6317 3.04139 60.8732 1.9703 63.2815 1.92142ZM3.27612 5.53516C3.17319 5.40528 2.98204 5.37641 2.84971 5.47743C2.80559 5.5063 2.77619 5.54959 2.76148 5.59289L0.114791 10.8026L0.0951451 10.8564C0.0556121 11.0017 0.118058 11.157 0.261829 11.2212C0.305941 11.2356 0.350052 11.25 0.408868 11.25H4.09953L4.14973 11.2465C4.24927 11.2323 4.3411 11.1758 4.37891 11.0768C5.15821 9.46052 4.67298 7.00717 3.27612 5.53516ZM89.497 6.18997L87.2233 1.91669H84.0835V11.25H86.0788V4.13817L86.914 6.02027L89.7445 11.25H92.2502V1.91669H90.2549V7.94864L89.497 6.18997ZM71.2502 1.91669V11.25H68.9168V1.91669H71.2502ZM36.1422 9.22908V1.91669H33.9168V11.25H38.4616L39.1668 9.22908H36.1422ZM32.1668 1.91669V3.93762H29.6582V11.25H27.5252V3.93762H25.1668V1.91669H32.1668ZM25.1668 11.25L21.9278 1.91669H19.0725L15.8335 11.25H18.305L18.7655 9.67647L18.9792 9.73613C20.0509 10.0145 21.1698 9.99465 22.2348 9.67647L22.6953 11.25H25.1668ZM45.8445 1.91669L49.0835 11.25H46.612L46.1515 9.67647C45.0865 9.99465 43.9676 10.0145 42.8959 9.73613L42.6822 9.67647L42.2217 11.25H39.7502L42.9892 1.91669H45.8445ZM82.3335 11.25L79.0945 1.91669H76.2392L73.0002 11.25H75.4716L75.9322 9.67647L76.1459 9.73613C77.2176 10.0145 78.3365 9.99465 79.4015 9.67647L79.862 11.25H82.3335ZM19.3028 7.82523L20.5002 3.7525L21.6975 7.82523L21.498 7.88065C21.1654 7.96278 20.8328 7.99492 20.5002 7.99492C20.101 7.99492 19.7019 7.93322 19.3028 7.82523ZM44.4168 3.7525L43.2195 7.82523C43.6186 7.93322 44.0177 7.99492 44.4168 7.99492C44.7494 7.99492 45.082 7.96278 45.4146 7.88065L45.6142 7.82523L44.4168 3.7525ZM76.4695 7.82523L77.6668 3.7525L78.8642 7.82523L78.6646 7.88065C78.332 7.96278 77.9994 7.99492 77.6668 7.99492C77.2677 7.99492 76.8686 7.93322 76.4695 7.82523Z" fill="#3B3A40"/>
</svg>
